{"title":"Gravity 2013 CAM V2 H264 AC3 AVi MURDER ","uid":9231687,"size":788745846,"categoryP":"video","categoryS":"movies","magnet":"?xt=urn:btih:df5252bd5ed4e60cdd5e7b1e7f382958949632c6&amp;dn=Gravity+2013+CAM+V2+H264+AC3+AVi+MURDER+&amp;tr=udp%3A%2F%2Ftracker.openbittorrent.com%3A80&amp;tr=udp%3A%2F%2Fopen.demonii.com%3A1337&amp;tr=udp%3A%2F%2Ftracker.coppersurfer.tk%3A6969&amp;tr=udp%3A%2F%2Fexodus.desync.com%3A6969","seeders":1,"leechers":0,"uploader":".BONE.","files":2,"time":1385079076,"description":"\nGravity 2013 CAM V2 H264 AC3 AVi MURDER\n &lt;a href=&quot;\nhttp://www.imdb.com/title/tt1454468/&quot; rel=&quot;nofollow&quot; target=&quot;_NEW&quot;&gt;\nhttp://www.imdb.com/title/tt1454468/&lt;/a&gt;\n\nA medical engineer and an astronaut work together to survive after an accident leaves them adrift in space.  \n\n\n\n\nFormat                                   : AVI\nFormat/Info                              : Audio Video Interleave\nFile size                                : 752 MiB\nDuration                                 : 1h 24mn\nOverall bit rate                         : 1 251 Kbps\n\nVideo\nID                                       : 0\nFormat                                   : AVC\nFormat/Info                              : Advanced Video Codec\nFormat profile                           : &lt;a class=&quot;__cf_email__&quot; href=&quot;/cdn-cgi/l/email-protection&quot; data-cfemail=&quot;bef6d7d9d6fef28d908e&quot;&gt;[email&amp;#160;protected]&lt;/a&gt;&lt;script cf-hash='f9e31' type=&quot;text/javascript&quot;&gt;\n/* &lt;![CDATA[ */!function(){try{var t=&quot;currentScript&quot;in document?document.currentScript:function(){for(var t=document.getElementsByTagName(&quot;script&quot;),e=t.length;e--;)if(t[e].getAttribute(&quot;cf-hash&quot;))return t[e]}();if(t&amp;&amp;t.previousSibling){var e,r,n,i,c=t.previousSibling,a=c.getAttribute(&quot;data-cfemail&quot;);if(a){for(e=&quot;&quot;,r=parseInt(a.substr(0,2),16),n=2;a.length-n;n+=2)i=parseInt(a.substr(n,2),16)^r,e+=String.fromCharCode(i);e=document.createTextNode(e),c.parentNode.replaceChild(e,c)}}}catch(u){}}();/* ]]&gt; */&lt;/script&gt;\nFormat settings, CABAC                   : Yes\nFormat settings, ReFrames                : 4 frames\nCodec ID                                 : H264\nDuration                                 : 1h 24mn\nBit rate                                 : 1 112 Kbps\nWidth                                    : 680 pixels\nHeight                                   : 318 pixels\nDisplay aspect ratio                     : 2.138\nFrame rate                               : 25.000 fps\nColor space                              : YUV\nChroma subsampling                       : 4:2:0\nBit depth                                : 8 bits\nScan type                                : Progressive\nBits/(Pixel*Frame)                       : 0.206\nStream size                              : 669 MiB (89%)\nWriting library                          : x264 core\n\nAudio\nID                                       : 1\nFormat                                   : AC-3\nFormat/Info                              : Audio Coding 3\nMode extension                           : CM (complete main)\nFormat settings, Endianness              : Big\nCodec ID                                 : 2000\nDuration                                 : 1h 24mn\nBit rate mode                            : Constant\nBit rate                                 : 128 Kbps\nChannel count                            : 2 channels\nChannel positions                        : Front: L R\nSampling rate                            : 44.1 KHz\nBit depth                                : 16 bits\nCompression mode                         : Lossy\nStream size                              : 77.0 MiB (10%)\nAlignment                                : Aligned on interleaves\nInterleave, duration                     : 35 ms (0.87 video frame)\n\nwell after further inspection .....we realise this source as been put together from a few\ndiff...vidz....lol.....anywayz still done a v2 as they did a good job syncin and wat not...\nif you dont like it theres allways the cinema's peopz...\n","torrent":{"xt":"urn:btih:df5252bd5ed4e60cdd5e7b1e7f382958949632c6","amp;dn":"Gravity+2013+CAM+V2+H264+AC3+AVi+MURDER+","amp;tr":["udp%3A%2F%2Ftracker.openbittorrent.com%3A80","udp%3A%2F%2Fopen.demonii.com%3A1337","udp%3A%2F%2Ftracker.coppersurfer.tk%3A6969","udp%3A%2F%2Fexodus.desync.com%3A6969"],"infoHash":"df5252bd5ed4e60cdd5e7b1e7f382958949632c6","infoHashBuffer":{"type":"Buffer","data":[223,82,82,189,94,212,230,12,221,94,123,30,127,56,41,88,148,150,50,198]},"announce":[],"urlList":[]}}